<?xml version="1.0" encoding="UTF-8" standalone="no"?>
<svg
   version="1.1"
   id="Layer_1"
   x="0px"
   y="0px"
   viewBox="0 0 1802.0276 703.00156"
   xml:space="preserve"
   sodipodi:docname="domovy-senlife.svg"
   inkscape:export-filename="/Users/akamaryt/WWW/senlife.cz/logo.png"
   inkscape:export-xdpi="95.900002"
   inkscape:export-ydpi="95.900002"
   inkscape:version="1.1 (c4e8f9e, 2021-05-24)"
   width="476.78647mm"
   height="186.0025mm"
   xmlns:inkscape="http://www.inkscape.org/namespaces/inkscape"
   xmlns:sodipodi="http://sodipodi.sourceforge.net/DTD/sodipodi-0.dtd"
   xmlns="http://www.w3.org/2000/svg"
   xmlns:svg="http://www.w3.org/2000/svg"
   xmlns:rdf="http://www.w3.org/1999/02/22-rdf-syntax-ns#"
   xmlns:cc="http://creativecommons.org/ns#"
   xmlns:dc="http://purl.org/dc/elements/1.1/"><metadata
   id="metadata1497"><rdf:RDF><cc:Work
       rdf:about=""><dc:format>image/svg+xml</dc:format><dc:type
         rdf:resource="http://purl.org/dc/dcmitype/StillImage" /></cc:Work></rdf:RDF></metadata><defs
   id="defs1495"><clipPath
     clipPathUnits="userSpaceOnUse"
     id="clipPath849"><path
       d="M 0,596.143 H 245.267 V 841.89 H 0 Z"
       id="path847" /></clipPath></defs><sodipodi:namedview
   pagecolor="#ffffff"
   bordercolor="#666666"
   inkscape:document-rotation="0"
   borderopacity="1"
   objecttolerance="10"
   gridtolerance="10"
   guidetolerance="10"
   inkscape:pageopacity="0"
   inkscape:pageshadow="2"
   inkscape:window-width="2560"
   inkscape:window-height="1305"
   id="namedview1493"
   showgrid="false"
   inkscape:zoom="0.64965435"
   inkscape:cx="890.47353"
   inkscape:cy="63.880123"
   inkscape:window-x="0"
   inkscape:window-y="25"
   inkscape:window-maximized="0"
   inkscape:current-layer="g1490"
   inkscape:snap-bbox="false"
   inkscape:bbox-paths="true"
   inkscape:bbox-nodes="true"
   inkscape:snap-bbox-edge-midpoints="true"
   inkscape:snap-bbox-midpoints="true"
   units="mm"
   fit-margin-top="0"
   fit-margin-left="0"
   fit-margin-right="0"
   fit-margin-bottom="0"
   inkscape:pagecheckerboard="0"
   inkscape:document-units="mm" />
<style
   type="text/css"
   id="style1456">
	.st0{fill:#FFFFFF;}
	.st1{fill:#0A4B60;}
	.st2{fill:#F6B233;}
</style>
<g
   id="g1490"
   transform="translate(-58.978169,-54.4)">
	<g
   id="g1474"
   style="fill:#2a6d7b;fill-opacity:1">
		<path
   class="st1"
   d="m 615.2,469.1 c 0,0 32.9,32.1 75.7,32.1 23.1,0 44.1,-12 44.1,-36.8 0,-54.3 -143.3,-44.9 -143.3,-138.2 0,-50.5 43.6,-88.1 101.8,-88.1 59.9,0 90.7,32.5 90.7,32.5 l -24,44.9 c 0,0 -29.1,-26.5 -67.2,-26.5 -25.7,0 -45.8,15 -45.8,36.4 0,53.9 142.9,40.6 142.9,137.8 0,48.3 -36.8,89 -100.1,89 -67.6,0 -104.8,-41.5 -104.8,-41.5 z"
   id="path1458"
   inkscape:connector-curvature="0"
   style="fill:#2a6d7b;fill-opacity:1" />
		<path
   class="st1"
   d="m 923.7,323.6 c 62.9,0 96.7,45.8 96.7,103.5 0,6.4 -1.3,21 -1.3,21 H 868.5 c 3.4,38.1 32.9,57.8 65.5,57.8 35.1,0 62.9,-24 62.9,-24 l 21,38.9 c 0,0 -33.4,31.2 -87.7,31.2 C 857.9,552 813,499.8 813,437.8 812.9,370.7 858.6,323.6 923.7,323.6 Z m 41.9,87.3 c -0.9,-29.5 -19.3,-45.4 -43.2,-45.4 -27.8,0 -47.1,17.1 -52.2,45.4 z"
   id="path1460"
   inkscape:connector-curvature="0"
   style="fill:#2a6d7b;fill-opacity:1" />
		<path
   class="st1"
   d="m 1056.7,328.7 h 52.2 V 354 c 0,8.1 -0.9,15 -0.9,15 h 0.9 c 9.4,-18.4 33.4,-45.4 77.4,-45.4 48.3,0 75.7,25.2 75.7,83 v 140.3 h -53.9 V 417.7 c 0,-26.5 -6.8,-44.5 -34.7,-44.5 -29.1,0 -50.5,18.4 -58.6,44.5 -3,9 -3.9,18.8 -3.9,29.1 v 100.1 h -54.3 V 328.7 Z"
   id="path1462"
   inkscape:connector-curvature="0"
   style="fill:#2a6d7b;fill-opacity:1" />
		<path
   class="st1"
   d="m 1307.4,243.2 h 53.9 v 227.6 c 0,24 8.1,29.9 22.3,29.9 4.3,0 8.1,-0.4 8.1,-0.4 v 47.5 c 0,0 -8.1,1.3 -17.1,1.3 -29.9,0 -67.2,-7.7 -67.2,-70.2 z"
   id="path1464"
   inkscape:connector-curvature="0"
   style="fill:#2a6d7b;fill-opacity:1" />
		<rect
   x="1423.3"
   y="243.2"
   class="st2"
   width="53.900002"
   height="48.299999"
   id="rect1466"
   style="fill:#2a6d7b;fill-opacity:1" />
		<rect
   x="1423.3"
   y="328.70001"
   class="st1"
   width="54.299999"
   height="218.2"
   id="rect1468"
   style="fill:#2a6d7b;fill-opacity:1" />
		<path
   class="st1"
   d="m 1540.1,375.4 h -27 v -43.2 h 27 v -9.8 c 0,-71.4 58.6,-80.9 89,-80.9 11.1,0 18.4,1.3 18.4,1.3 V 289 c 0,0 -4.7,-0.9 -11.1,-0.9 -15.4,0 -41.9,3.9 -41.9,35.5 v 8.6 h 46.6 v 43.2 h -46.6 V 547 h -54.3 V 375.4 Z"
   id="path1470"
   inkscape:connector-curvature="0"
   style="fill:#2a6d7b;fill-opacity:1" />
		<path
   class="st1"
   d="m 1764.3,323.6 c 62.9,0 96.7,45.8 96.7,103.5 0,6.4 -1.3,21 -1.3,21 h -150.6 c 3.4,38.1 32.9,57.8 65.5,57.8 35.1,0 62.9,-24 62.9,-24 l 21,38.9 c 0,0 -33.4,31.2 -87.7,31.2 -72.3,0 -117.2,-52.2 -117.2,-114.2 -0.1,-67.1 45.7,-114.2 110.7,-114.2 z m 41.9,87.3 c -0.9,-29.5 -19.3,-45.4 -43.2,-45.4 -27.8,0 -47.1,17.1 -52.2,45.4 z"
   id="path1472"
   inkscape:connector-curvature="0"
   style="fill:#2a6d7b;fill-opacity:1" />
	</g>
	<g
   id="g1488">
		<g
   id="g1480"
   style="fill:#2a6d7b;fill-opacity:1">
			<path
   class="st1"
   d="M 216.2,521 C 193.9,514.7 173.3,504.5 153.9,491.9 134.6,479.2 116.6,463.6 101,444.8 85.5,425.9 72.6,403.2 65.2,377.3 61.3,364.4 59.5,350.7 59,336.6 c -0.3,-15.3 2.5,-30.7 7.9,-45.2 10.7,-28.9 32.4,-53.6 59.6,-67.1 27.1,-13.7 58.9,-17.1 86.7,-8.7 27.9,8.1 51.4,26.8 64.2,50.1 12.9,23.2 15.3,50.5 6.6,72.1 -8.9,-21.5 -21.9,-37.1 -36.7,-47 -14.8,-9.9 -30.8,-13.9 -45.3,-13.5 -29.5,0.8 -52,19 -60.5,42 -2.1,5.7 -3.6,11.7 -3.9,18 0,3.6 -0.1,7.6 0,11.5 0.5,3.9 0.3,7.9 1.1,11.9 2.2,16.1 7.5,33.2 15,50.7 15.2,35.2 38.8,70.2 62.5,109.6 z"
   id="path1476"
   inkscape:connector-curvature="0"
   style="fill:#2a6d7b;fill-opacity:1" />
			<circle
   class="st1"
   cx="168.7"
   cy="131"
   r="62.900002"
   id="circle1478"
   style="fill:#2a6d7b;fill-opacity:1" />
		</g>
		<g
   id="g1486"
   style="fill:#deb132;fill-opacity:1">
			<path
   class="st2"
   d="m 284,337.8 c -9,-25 -3.4,-56.6 15,-81 18.1,-24.6 49.4,-41.5 82.7,-42.9 33.4,-2 68.5,12 92.6,37.3 12.2,12.5 21.5,28 27.7,44.7 3,8.4 4.9,17.1 6.1,25.9 0.7,4.4 0.7,8.8 1,13.3 0.3,4.5 -0.2,8.2 -0.3,12.3 -0.5,8 -1.1,16.1 -3.1,23.7 -1.6,7.7 -3.2,15.5 -6,22.6 -2.6,7.2 -5.2,14.5 -8.7,21.1 -3.3,6.7 -6.4,13.6 -10.6,19.5 -15.4,24.9 -34.5,45.6 -55.3,63 -20.8,17.4 -43.4,31.7 -67,43.2 -23.5,11.4 -48.1,20.5 -74.1,25.1 34.9,-39 68.6,-74.3 96.1,-111.7 27.4,-37 47.6,-75.8 49.3,-110.9 0.1,-2.1 0.7,-4.7 0.5,-6.4 -0.2,-1.8 0.1,-3.6 -0.3,-5.4 -0.4,-3.6 -1.1,-7 -2,-10.5 -1.8,-7 -5.2,-13.5 -9.5,-19.5 -8.8,-12.1 -22.2,-21.3 -38.7,-25 -16.5,-3.7 -35.5,-1.5 -53.2,8.6 -17.9,10.1 -33.6,28 -42.2,53 z"
   id="path1482"
   inkscape:connector-curvature="0"
   style="fill:#deb132;fill-opacity:1" />
			<path
   class="st2"
   d="M 466.4,64 C 453.6,51.2 432.8,51.2 420,64 c -1.9,1.9 -3.4,4 -4.8,6.2 -5.1,-1.3 -10.4,-2.1 -15.8,-2.1 -34.8,0 -62.9,28.2 -62.9,62.9 0,34.8 28.2,62.9 62.9,62.9 34.7,0 62.9,-28.2 62.9,-62.9 0,-5.5 -0.8,-10.8 -2.1,-15.8 2.2,-1.3 4.3,-2.9 6.2,-4.8 12.8,-12.8 12.8,-33.6 0,-46.4 z"
   id="path1484"
   inkscape:connector-curvature="0"
   style="fill:#deb132;fill-opacity:1" />
		</g>
	</g>
<g
   aria-label="DOMOVY PRO SENIORY"
   id="text1588"
   style="font-size:127.952px;line-height:1.25;font-family:Ubuntu;-inkscape-font-specification:'Ubuntu, Normal';letter-spacing:21.15px;fill:#2a6d7b;stroke-width:7.99694"><path
     d="m 58.97817,755.86615 h 30.964385 c 28.021485,0 46.318625,-16.88966 46.318625,-45.55091 0,-28.66125 -18.29714,-45.29501 -46.318625,-45.29501 H 58.97817 Z M 75.483979,741.66348 V 679.2229 h 13.562912 c 18.169189,0 30.196669,10.87592 30.196669,31.09234 0,20.47232 -11.77158,31.34824 -30.196669,31.34824 z"
     style="font-weight:600;font-family:'Museo Sans';-inkscape-font-specification:'Museo Sans Semi-Bold'"
     id="path1393" /><path
     d="m 168.32309,709.80343 c 0,26.74197 20.21641,47.59814 46.95838,47.59814 26.74197,0 46.95839,-20.85617 46.95839,-47.59814 0,-25.97426 -20.21642,-46.31863 -46.95839,-46.31863 -26.74197,0 -46.95838,20.34437 -46.95838,46.31863 z m 17.01761,0 c 0,-17.91328 13.30701,-31.22029 29.94077,-31.22029 16.63376,0 29.94077,13.30701 29.94077,31.22029 0,18.68099 -13.30701,32.49981 -29.94077,32.49981 -16.63376,0 -29.94077,-13.81882 -29.94077,-32.49981 z"
     style="font-weight:600;font-family:'Museo Sans';-inkscape-font-specification:'Museo Sans Semi-Bold'"
     id="path1395" /><path
     d="m 297.3886,755.86615 h 16.50581 l 3.83856,-50.79695 c 0.38385,-6.01374 0.12795,-14.20267 0.12795,-14.20267 h 0.2559 c 0,0 2.81495,8.95664 4.99013,14.20267 l 14.58653,35.18681 h 14.45858 l 14.71448,-35.18681 c 2.17518,-5.24603 4.86217,-14.07472 4.86217,-14.07472 h 0.25591 c 0,0 -0.25591,8.06098 0.12795,14.07472 l 3.83856,50.79695 h 16.37786 l -7.29327,-90.84592 h -17.65738 l -17.78532,44.91115 c -2.04724,5.37398 -4.47832,13.30701 -4.47832,13.30701 h -0.25591 c 0,0 -2.55904,-7.93303 -4.60627,-13.30701 l -17.78533,-44.91115 h -17.65738 z"
     style="font-weight:600;font-family:'Museo Sans';-inkscape-font-specification:'Museo Sans Semi-Bold'"
     id="path1397" /><path
     d="m 427.54171,709.80343 c 0,26.74197 20.21642,47.59814 46.95839,47.59814 26.74197,0 46.95838,-20.85617 46.95838,-47.59814 0,-25.97426 -20.21641,-46.31863 -46.95838,-46.31863 -26.74197,0 -46.95839,20.34437 -46.95839,46.31863 z m 17.01762,0 c 0,-17.91328 13.30701,-31.22029 29.94077,-31.22029 16.63376,0 29.94077,13.30701 29.94077,31.22029 0,18.68099 -13.30701,32.49981 -29.94077,32.49981 -16.63376,0 -29.94077,-13.81882 -29.94077,-32.49981 z"
     style="font-weight:600;font-family:'Museo Sans';-inkscape-font-specification:'Museo Sans Semi-Bold'"
     id="path1399" /><path
     d="m 580.41832,755.86615 h 16.37786 l 33.13957,-90.84592 h -17.65738 l -20.08846,59.24178 c -1.79133,5.24603 -3.32676,13.307 -3.45471,13.307 h -0.2559 c -0.12795,0 -1.66338,-8.06097 -3.45471,-13.307 l -19.96051,-59.24178 h -17.78533 z"
     style="font-weight:600;font-family:'Museo Sans';-inkscape-font-specification:'Museo Sans Semi-Bold'"
     id="path1401" /><path
     d="m 685.72671,755.86615 h 16.50581 V 717.8644 l 30.19667,-52.84417 H 713.7482 l -14.07472,26.74197 c -2.9429,5.62988 -5.50194,12.15544 -5.50194,12.15544 h -0.2559 c -0.12795,0.12795 -2.55904,-6.52556 -5.50194,-12.15544 l -14.20267,-26.74197 h -18.68099 l 30.19667,52.84417 z"
     style="font-weight:600;font-family:'Museo Sans';-inkscape-font-specification:'Museo Sans Semi-Bold'"
     id="path1403" /><path
     d="m 817.54915,755.86615 h 16.50581 V 724.51791 H 852.608 c 17.01762,0 28.91716,-12.28339 28.91716,-29.94077 0,-17.65738 -11.89954,-29.55691 -28.91716,-29.55691 h -35.05885 z m 16.50581,-45.67887 V 679.2229 h 15.7381 c 9.3405,0 14.97038,6.01374 14.97038,15.35424 0,9.46845 -5.62988,15.61014 -15.22628,15.61014 z"
     style="font-weight:600;font-family:'Museo Sans';-inkscape-font-specification:'Museo Sans Semi-Bold'"
     id="path1405" /><path
     d="m 917.1697,755.86615 h 16.50581 v -33.90728 h 15.86605 l 18.04123,33.90728 h 18.42509 l -18.681,-33.90728 c -1.79132,-3.1988 -3.07084,-4.47832 -3.07084,-4.47832 v -0.25591 c 9.5964,-3.83856 15.35424,-13.94676 15.35424,-24.82268 0,-12.02749 -5.75784,-20.72823 -14.84244,-24.82269 -3.96651,-1.79133 -8.44483,-2.55904 -18.29713,-2.55904 H 917.1697 Z m 16.50581,-48.23791 V 679.2229 h 12.53929 c 12.92316,0 16.63376,5.37398 16.63376,14.07472 0,9.08459 -5.50193,14.33062 -14.33062,14.33062 z"
     style="font-weight:600;font-family:'Museo Sans';-inkscape-font-specification:'Museo Sans Semi-Bold'"
     id="path1407" /><path
     d="m 1015.7686,709.80343 c 0,26.74197 20.2165,47.59814 46.9584,47.59814 26.742,0 46.9584,-20.85617 46.9584,-47.59814 0,-25.97426 -20.2164,-46.31863 -46.9584,-46.31863 -26.7419,0 -46.9584,20.34437 -46.9584,46.31863 z m 17.0177,0 c 0,-17.91328 13.307,-31.22029 29.9407,-31.22029 16.6338,0 29.9408,13.30701 29.9408,31.22029 0,18.68099 -13.307,32.49981 -29.9408,32.49981 -16.6337,0 -29.9407,-13.81882 -29.9407,-32.49981 z"
     style="font-weight:600;font-family:'Museo Sans';-inkscape-font-specification:'Museo Sans Semi-Bold'"
     id="path1409" /><path
     d="m 1192.8781,744.99023 c 0,0 11.1318,12.41134 31.3482,12.41134 18.9369,0 29.9408,-12.15544 29.9408,-26.61401 0,-29.04511 -42.736,-25.0786 -42.736,-41.20055 0,-6.3976 6.0138,-10.87592 13.6909,-10.87592 11.3877,0 20.0885,7.93303 20.0885,7.93303 l 7.1653,-13.43496 c 0,0 -9.2126,-9.72436 -27.1259,-9.72436 -17.4014,0 -30.4525,11.25978 -30.4525,26.35812 0,27.89353 42.8639,25.07859 42.8639,41.32849 0,7.42122 -6.2697,11.00388 -13.1791,11.00388 -12.7952,0 -22.6475,-9.5964 -22.6475,-9.5964 z"
     style="font-weight:600;font-family:'Museo Sans';-inkscape-font-specification:'Museo Sans Semi-Bold'"
     id="path1411" /><path
     d="m 1291.9109,755.86615 h 56.4268 v -14.20267 h -39.921 v -24.43884 h 30.5805 v -14.20267 h -30.5805 V 679.2229 h 37.8738 v -14.20267 h -54.3796 z"
     style="font-weight:600;font-family:'Museo Sans';-inkscape-font-specification:'Museo Sans Semi-Bold'"
     id="path1413" /><path
     d="m 1386.5333,755.86615 h 16.5059 v -52.33237 c 0,-5.37398 -0.8957,-14.07472 -0.8957,-14.07472 h 0.2559 c 0,0 4.0945,8.82869 7.5492,14.07472 l 34.4191,52.33237 h 16.3778 v -90.84592 h -16.3778 v 52.46032 c 0,5.37398 0.8956,14.07472 0.8956,14.07472 h -0.2559 c 0,0 -4.0945,-8.82869 -7.5492,-14.07472 l -34.419,-52.46032 h -16.5059 z"
     style="font-weight:600;font-family:'Museo Sans';-inkscape-font-specification:'Museo Sans Semi-Bold'"
     id="path1415" /><path
     d="m 1504.8969,755.86615 h 16.5058 v -90.84592 h -16.5058 z"
     style="font-weight:600;font-family:'Museo Sans';-inkscape-font-specification:'Museo Sans Semi-Bold'"
     id="path1417" /><path
     d="m 1559.2624,709.80343 c 0,26.74197 20.2164,47.59814 46.9583,47.59814 26.742,0 46.9584,-20.85617 46.9584,-47.59814 0,-25.97426 -20.2164,-46.31863 -46.9584,-46.31863 -26.7419,0 -46.9583,20.34437 -46.9583,46.31863 z m 17.0176,0 c 0,-17.91328 13.307,-31.22029 29.9407,-31.22029 16.6338,0 29.9408,13.30701 29.9408,31.22029 0,18.68099 -13.307,32.49981 -29.9408,32.49981 -16.6337,0 -29.9407,-13.81882 -29.9407,-32.49981 z"
     style="font-weight:600;font-family:'Museo Sans';-inkscape-font-specification:'Museo Sans Semi-Bold'"
     id="path1419" /><path
     d="m 1691.1428,755.86615 h 16.5059 v -33.90728 h 15.866 l 18.0412,33.90728 h 18.4251 L 1741.3,721.95887 c -1.7913,-3.1988 -3.0708,-4.47832 -3.0708,-4.47832 v -0.25591 c 9.5964,-3.83856 15.3542,-13.94676 15.3542,-24.82268 0,-12.02749 -5.7578,-20.72823 -14.8424,-24.82269 -3.9665,-1.79133 -8.4448,-2.55904 -18.2971,-2.55904 h -29.3011 z m 16.5059,-48.23791 V 679.2229 h 12.5392 c 12.9232,0 16.6338,5.37398 16.6338,14.07472 0,9.08459 -5.5019,14.33062 -14.3306,14.33062 z"
     style="font-weight:600;font-family:'Museo Sans';-inkscape-font-specification:'Museo Sans Semi-Bold'"
     id="path1421" /><path
     d="m 1813.9488,755.86615 h 16.5058 V 717.8644 l 30.1966,-52.84417 h -18.681 l -14.0747,26.74197 c -2.9429,5.62988 -5.5019,12.15544 -5.5019,12.15544 h -0.2559 c -0.128,0.12795 -2.5591,-6.52556 -5.5019,-12.15544 l -14.2027,-26.74197 h -18.681 l 30.1967,52.84417 z"
     style="font-weight:600;font-family:'Museo Sans';-inkscape-font-specification:'Museo Sans Semi-Bold'"
     id="path1423" /></g></g>
</svg>
